<svg width="24" height="17" viewBox="0 0 24 17" fill="none" xmlns="http://www.w3.org/2000/svg">
<path d="M0.908228 8.46028L0.891035 8.5L0.908228 8.53972C1.88212 10.7898 3.36054 12.6127 5.34247 14.0068C7.3262 15.4021 9.54634 16.1 12 16.1C14.4537 16.1 16.6738 15.4021 18.6575 14.0068C20.6395 12.6127 22.1179 10.7898 23.0918 8.53972L23.109 8.5L23.0918 8.46028C22.1179 6.21025 20.6395 4.38728 18.6575 2.99321C16.6738 1.59787 14.4537 0.9 12 0.9C9.54634 0.9 7.3262 1.59787 5.34247 2.99321C3.36054 4.38728 1.88212 6.21025 0.908228 8.46028ZM12.003 12.85C13.2105 12.85 14.2393 12.4262 15.0833 11.5802C15.9272 10.7342 16.35 9.70458 16.35 8.49705C16.35 7.28946 15.9262 6.2607 15.0802 5.41671C14.2342 4.57277 13.2046 4.15 11.9971 4.15C10.7895 4.15 9.7607 4.57381 8.91671 5.41982C8.07277 6.26576 7.65 7.29542 7.65 8.50295C7.65 9.71054 8.07381 10.7393 8.91982 11.5833C9.76576 12.4272 10.7954 12.85 12.003 12.85ZM11.9941 11.2C11.2409 11.2 10.6061 10.9376 10.0835 10.4112C9.56068 9.88459 9.3 9.24754 9.3 8.49413C9.3 7.74094 9.56245 7.10607 10.0888 6.58347C10.6154 6.06068 11.2525 5.8 12.0059 5.8C12.7591 5.8 13.3939 6.06245 13.9165 6.58883C14.4393 7.11541 14.7 7.75246 14.7 8.50587C14.7 9.25906 14.4376 9.89393 13.9112 10.4165C13.3846 10.9393 12.7475 11.2 11.9941 11.2ZM17.5083 12.7785C15.8328 13.8597 13.9961 14.4 11.9958 14.4C9.99548 14.4 8.16018 13.8597 6.48756 12.7785C4.82774 11.7056 3.55282 10.28 2.66172 8.5C3.55282 6.72008 4.82912 5.29444 6.49172 4.22152C8.16717 3.14032 10.0039 2.6 12.0042 2.6C14.0045 2.6 15.8398 3.14032 17.5124 4.22148C19.1723 5.29442 20.439 6.72007 21.3137 8.5C20.439 10.2799 19.1709 11.7055 17.5083 12.7785Z" fill="#4B4B60" stroke="#4B4B60" stroke-width="0.2"/>
</svg>
